<?xml version="1.0" encoding="UTF-8"?>
<svg id="katman_2" data-name="katman 2" xmlns="http://www.w3.org/2000/svg" viewBox="0 0 164.84 193.95">
  <defs>
    <style>
      .cls-1 {
        fill: #20ab8c;
        stroke-width: 0px;
      }
    </style>
  </defs>
  <g id="katman_2-2" data-name="katman 2">
    <g>
      <path class="cls-1" d="m132.38,121.57c-16.62,11.68-37.32,13.77-54.26,26.29,3.02-22.56,28.84-34.89,54.26-26.29Z"/>
      <path class="cls-1" d="m164.84,42.97c-9.37,10.68-20.76,17.69-33.1,23.51-11.47,5.42-22.95,10.86-34.11,16.88-11.9,6.42-18.99,16.49-20.56,30.21-2.03,17.75-4.98,35.37-1.79,53.41,1.42,8.02,1.29,16.49-1.22,26.97-5.13-15.04-3.07-28.51-4.92-41.52-5.43-38.32-17.92-49.48-56.39-49.24-3.53.02-7.06,0-12.75,0,25.55-22.83,54.7-20.51,65.66,6.08.74,1.79,1.54,4.11,3.66,4.18,2.86.09,3.39-2.73,3.98-4.83,4.42-15.72,8.21-31.54,6.68-48.08-1.97-21.25-14.69-34.92-32.39-44.62-7.85-4.3-16.34-7.42-24.83-11.2,29.86-14.43,63.3,5.91,62.55,37.93-.28,11.99-2.17,23.95-3.23,35.94-.19,2.15-1.19,5.1,1.39,6.1,2.82,1.08,3.64-2.02,4.79-3.82,2.44-3.84,4.51-7.94,7.12-11.66,16.63-23.8,42.22-33.61,69.46-26.24Z"/>
    </g>
  </g>
</svg>